<?xml version="1.0" encoding="UTF-8" standalone="no"?>
<!-- Created with Inkscape (http://www.inkscape.org/) -->

<svg
   width="20.694345mm"
   height="2.8256612mm"
   viewBox="0 0 20.694345 2.8256612"
   version="1.1"
   id="svg1"
   xmlns="http://www.w3.org/2000/svg"
   xmlns:svg="http://www.w3.org/2000/svg">
  <defs
     id="defs1" />
  <g
     id="layer1"
     transform="translate(-7.0491745,-17.055948)">
    <path
       style="font-family:'MV Boli';-inkscape-font-specification:'MV Boli';white-space:pre;stroke:#000000"
       d="m 27.142578,71.830612 q 0,-0.339844 0.08203,-0.767579 0.08203,-0.433593 0.28711,-0.83789 0.28125,-0.5625 0.626953,-1.083985 0.345703,-0.527343 0.708984,-0.966796 0.363281,-0.445313 0.726563,-0.785157 0.363281,-0.345703 0.691406,-0.539062 l -0.0059,0.0059 q 0.205078,-0.128906 0.433593,-0.269531 0.228516,-0.140625 0.46875,-0.257813 0.240235,-0.117187 0.486328,-0.193359 0.246094,-0.07617 0.486329,-0.07617 0.246093,0 0.46875,0.09961 0.222656,0.09961 0.386718,0.27539 0.169922,0.169922 0.263672,0.398438 0.09961,0.228515 0.09961,0.486328 0,0.18164 -0.02344,0.287109 -0.01758,0.09961 -0.06445,0.152344 -0.04102,0.05273 -0.111328,0.06445 -0.06445,0.01172 -0.152344,0.01172 -0.128906,0 -0.205078,-0.05273 -0.07031,-0.05859 -0.117188,-0.134765 -0.04102,-0.08203 -0.06445,-0.175781 -0.02344,-0.09961 -0.05859,-0.175782 -0.0293,-0.08203 -0.08203,-0.134765 -0.04687,-0.05859 -0.134765,-0.05859 -0.234375,0 -0.509766,0.105469 -0.269531,0.105468 -0.556641,0.28125 -0.28125,0.175781 -0.568359,0.404297 -0.28125,0.222656 -0.539062,0.457031 -0.257813,0.234375 -0.480469,0.46289 -0.216797,0.228516 -0.375,0.410157 -0.234375,0.298828 -0.427735,0.609375 -0.193359,0.304687 -0.333984,0.626953 -0.140625,0.316406 -0.216797,0.65625 -0.07617,0.333984 -0.07617,0.697265 0,0.28125 0.07617,0.492188 0.08203,0.210937 0.175781,0.363281 0.111329,0.175781 0.275391,0.246094 0.164063,0.06445 0.392578,0.06445 0.498047,0 0.919922,-0.09375 0.421875,-0.09375 0.808594,-0.251953 0.386719,-0.158203 0.755859,-0.375 0.369141,-0.216797 0.761719,-0.462891 h 0.152344 q 0.07617,0 0.152343,0.04102 0.08203,0.04102 0.140625,0.105469 0.06445,0.06445 0.09961,0.146484 0.04102,0.08203 0.04102,0.169922 0,0.193359 -0.152343,0.386719 -0.152344,0.1875 -0.392578,0.363281 -0.234375,0.169922 -0.533204,0.322266 -0.298828,0.152343 -0.591796,0.269531 -0.28711,0.117187 -0.539063,0.199219 -0.251953,0.08203 -0.404297,0.111328 -0.128906,0.0293 -0.251953,0.05859 -0.117187,0.02344 -0.28125,0.05273 -0.164062,0.02344 -0.392578,0.04102 -0.228516,0.01172 -0.574219,0.01172 -0.210937,0 -0.386719,-0.06445 -0.175781,-0.07031 -0.316406,-0.158203 -0.134765,-0.09375 -0.234375,-0.193359 -0.09375,-0.09961 -0.152344,-0.169922 Q 27.458956,73.08457 27.300753,72.691992 27.14255,72.299414 27.14255,71.830664 Z m 7.101563,-0.486329 q 0.105468,-0.439453 0.304687,-0.896484 0.199219,-0.462891 0.46875,-0.925781 0.269531,-0.462891 0.597656,-0.908203 0.333985,-0.451172 0.703125,-0.867188 0.375,-0.421875 0.767578,-0.791015 0.398438,-0.375 0.796875,-0.685547 0.1875,-0.128907 0.345704,-0.169922 0.158203,-0.04102 0.333984,-0.04102 0.1875,0 0.333984,0.05859 0.146485,0.05273 0.292969,0.199219 0.04687,0.05273 0.09961,0.09375 0.05273,0.04102 0.09961,0.04102 0.01172,0 0.0293,-0.02344 0.01758,-0.0293 0.03516,-0.06445 0.02344,-0.03516 0.05273,-0.07031 0.0293,-0.04102 0.07031,-0.05859 0.09961,-0.04687 0.234375,-0.05859 0.140625,-0.01758 0.28125,-0.01758 0.263672,0 0.509765,0.09961 0.246094,0.09375 0.433594,0.269531 0.445313,0.416016 0.673828,0.996094 0.234375,0.580078 0.234375,1.248047 0,0.597656 -0.175781,1.289062 -0.152344,0.609375 -0.439453,1.183594 -0.28125,0.574219 -0.667969,1.078125 -0.380859,0.503906 -0.855469,0.919922 -0.46875,0.416016 -1.001953,0.714844 -0.533203,0.298828 -1.113281,0.46289 -0.580078,0.169922 -1.177734,0.169922 -0.556641,0 -1.001953,-0.169922 -0.439454,-0.169922 -0.75,-0.480468 -0.304688,-0.310547 -0.46875,-0.738282 -0.158204,-0.427734 -0.158204,-0.949218 0,-0.222657 0.02344,-0.445313 0.0293,-0.228516 0.08789,-0.462891 z m 0.990234,0.392579 q -0.06445,0.292968 -0.06445,0.527343 0,0.328125 0.111328,0.580078 0.117187,0.246094 0.322266,0.416016 0.210937,0.164063 0.498046,0.251953 0.292969,0.08203 0.638672,0.08203 0.410157,0 0.832032,-0.128906 0.427734,-0.128906 0.832031,-0.375 0.404297,-0.246094 0.779297,-0.591797 0.375,-0.345703 0.691406,-0.785156 0.322266,-0.439453 0.568359,-0.955078 0.251953,-0.515625 0.404297,-1.095703 0.05859,-0.210938 0.08203,-0.439453 0.0293,-0.228516 0.0293,-0.439453 0,-0.339844 -0.07617,-0.650391 -0.07617,-0.310547 -0.251953,-0.550781 -0.175781,-0.240235 -0.46289,-0.38086 -0.28711,-0.146484 -0.703125,-0.146484 -0.05859,0 -0.09375,0.05273 -0.0293,0.04687 -0.06445,0.123047 -0.0293,0.06445 -0.07031,0.134766 -0.03516,0.07031 -0.09961,0.128906 -0.05859,0.05273 -0.152344,0.08789 -0.08789,0.03516 -0.222656,0.03516 -0.09961,0 -0.175782,-0.04102 -0.07617,-0.04687 -0.152343,-0.123047 -0.03516,-0.03516 -0.05859,-0.05273 -0.02344,-0.02344 -0.05273,-0.02344 -0.05273,0 -0.140625,0.04687 -0.08203,0.04687 -0.175782,0.111328 -0.08789,0.06445 -0.175781,0.134765 -0.08203,0.07031 -0.128906,0.123047 -0.398438,0.410156 -0.796875,0.896485 -0.392578,0.480468 -0.726563,0.996093 -0.333984,0.515625 -0.585937,1.042969 -0.246094,0.521484 -0.357422,1.007813 z M 39.5,65.74858 Z m 5.015625,1.488282 q 0.03516,-0.152344 0.08789,-0.322266 0.05273,-0.175781 0.140625,-0.316406 0.08789,-0.146485 0.228515,-0.240235 0.140625,-0.09961 0.357422,-0.09961 0.205078,0 0.363281,0.117187 0.164063,0.111329 0.292969,0.228516 0.152344,0.09961 0.292969,0.404297 0.140625,0.304687 0.287109,0.75 0.152344,0.445312 0.322266,1.007812 0.175781,0.5625 0.380859,1.177735 0.210938,0.615234 0.46875,1.259765 0.257813,0.638672 0.585938,1.248047 0.05273,0.09375 0.123047,0.222657 0.07031,0.123046 0.140625,0.234375 0.07617,0.111328 0.134765,0.1875 0.06445,0.07617 0.09375,0.07617 0.01758,0 0.04102,-0.08789 0.02344,-0.08789 0.05273,-0.210938 0.0293,-0.123047 0.05859,-0.251953 0.03516,-0.128906 0.06445,-0.210937 0.111328,-0.269532 0.240234,-0.615235 0.134766,-0.351562 0.292969,-0.84375 0.164063,-0.498047 0.357422,-1.177734 0.193359,-0.679688 0.427734,-1.611328 0.05859,-0.228516 0.123047,-0.515625 0.07031,-0.292969 0.128907,-0.591797 0.06445,-0.304688 0.111328,-0.591797 0.04687,-0.287109 0.06445,-0.498047 0,-0.03516 0.0059,-0.123047 0.0059,-0.08789 0.01758,-0.199218 0.01758,-0.111329 0.04102,-0.228516 0.02344,-0.123047 0.05859,-0.222656 0.04102,-0.09961 0.09961,-0.164063 0.05859,-0.06445 0.140625,-0.06445 0.08203,0 0.199219,0.02344 0.123047,0.02344 0.222656,0.07031 0.111328,0.152344 0.199219,0.369141 0.09375,0.210937 0.09375,0.574218 0,0.228516 -0.04687,0.550782 -0.04687,0.316406 -0.123047,0.685547 -0.07031,0.363281 -0.164063,0.75 -0.08789,0.386718 -0.18164,0.74414 -0.09375,0.351563 -0.181641,0.650391 -0.08203,0.292969 -0.140625,0.486328 -0.105469,0.339844 -0.222656,0.703125 -0.111328,0.357422 -0.251953,0.755859 -0.134766,0.392578 -0.298828,0.837891 -0.158203,0.439453 -0.357422,0.943359 -0.08789,0.228516 -0.205078,0.457032 -0.111328,0.228515 -0.257813,0.416015 -0.146484,0.181641 -0.333984,0.298828 -0.181641,0.111328 -0.410156,0.111328 -0.134766,0 -0.28125,-0.04102 -0.140625,-0.03516 -0.240235,-0.152344 -0.480469,-0.556641 -0.855469,-1.259766 -0.375,-0.708984 -0.673828,-1.476562 -0.292968,-0.773438 -0.521484,-1.558594 -0.228516,-0.791015 -0.416016,-1.511719 l -0.03516,-0.134765 q -0.02344,-0.08203 -0.04687,-0.164063 -0.01758,-0.08789 -0.04102,-0.158203 -0.01758,-0.07031 -0.04687,-0.111328 -0.02344,-0.04687 -0.05859,-0.04687 -0.03516,0 -0.08789,0.128906 -0.05273,0.128907 -0.105469,0.292969 -0.05273,0.158203 -0.09961,0.310547 -0.04102,0.152344 -0.05273,0.193359 -0.04102,0.152344 -0.123047,0.439453 -0.08203,0.28125 -0.1875,0.638672 -0.09961,0.357422 -0.222657,0.75586 -0.117187,0.398437 -0.228515,0.773437 -0.111328,0.369141 -0.210938,0.685547 -0.09961,0.316406 -0.164062,0.509766 -0.05273,0.152343 -0.128906,0.392578 -0.07617,0.240234 -0.152344,0.486328 -0.07617,0.240234 -0.140625,0.439453 -0.06445,0.199219 -0.08203,0.263672 -0.07031,0.222656 -0.210938,0.333984 -0.134766,0.117188 -0.275391,0.117188 -0.08789,0 -0.175781,-0.06445 -0.08789,-0.05859 -0.158203,-0.146485 -0.06445,-0.08789 -0.111328,-0.1875 -0.04102,-0.105468 -0.04102,-0.1875 0,-0.04687 0.0293,-0.146484 0.0293,-0.105469 0.09375,-0.351563 L 42.78125,72.850143 Z M 46.4375,65.74858 Z m 8.255859,7.634766 q 0.222657,-0.972656 0.498047,-1.962891 0.28125,-0.990234 0.544922,-1.96289 0.111328,-0.404297 0.193359,-0.732422 0.08789,-0.333985 0.146485,-0.603516 0.05859,-0.269531 0.08789,-0.486328 0.0293,-0.222656 0.0293,-0.410156 0,-0.03516 0,-0.07617 0,-0.04687 -0.0059,-0.111328 -0.05859,0 -0.263672,0.06445 -0.199219,0.06445 -0.474609,0.169922 -0.269532,0.105469 -0.574219,0.240234 -0.298828,0.128906 -0.556641,0.263672 -0.205078,0.105469 -0.345703,0.175781 -0.134765,0.07031 -0.234375,0.111328 -0.09961,0.03516 -0.18164,0.05273 -0.08203,0.01172 -0.169922,0.01172 -0.181641,0 -0.316407,-0.140625 -0.128906,-0.140625 -0.128906,-0.363282 0,-0.128906 0.02344,-0.222656 0.0293,-0.09961 0.08203,-0.175781 0.05859,-0.07617 0.152344,-0.140625 0.09375,-0.07031 0.228515,-0.140625 1.482422,-0.773438 3,-1.13086 1.517578,-0.363281 3.046875,-0.363281 0.123047,0 0.292969,0.0059 0.169922,0.0059 0.345703,0.02344 0.181641,0.01172 0.351563,0.04102 0.169922,0.02344 0.298828,0.05859 0.134765,0.04102 0.234375,0.169922 0.09961,0.128907 0.09961,0.275391 0,0.117187 -0.02344,0.228516 -0.01758,0.111328 -0.07031,0.193359 -0.05273,0.08203 -0.140625,0.134766 -0.08203,0.04687 -0.205078,0.04687 -0.210937,-0.02344 -0.486328,-0.05859 -0.269531,-0.03516 -0.544922,-0.03516 -0.550781,0 -1.101562,0.0293 -0.544922,0.02344 -1.119141,0.152344 -0.0293,0.01172 -0.04102,0.06445 -0.0059,0.04687 -0.01172,0.123047 -0.01758,0.316406 -0.05273,0.556641 -0.03516,0.240234 -0.09961,0.480469 -0.05859,0.240234 -0.146485,0.521484 -0.08789,0.275391 -0.205078,0.667969 -0.117187,0.386718 -0.27539,0.93164 -0.152344,0.539063 -0.339844,1.306641 l -0.28125,1.136719 q -0.09961,0.392578 -0.158203,0.708984 -0.05273,0.310547 -0.09375,0.615234 -0.02344,0.09961 -0.181641,0.1875 -0.152344,0.08789 -0.363281,0.08789 -0.123047,0 -0.222656,-0.06445 -0.09961,-0.07031 -0.164063,-0.175781 -0.06445,-0.105469 -0.08789,-0.228516 -0.02344,-0.128906 0.01172,-0.251953 z m 10.324219,1.007812 q -0.123047,0 -0.216797,-0.04687 -0.09375,-0.04687 -0.158203,-0.123046 -0.05859,-0.07617 -0.09375,-0.175782 -0.0293,-0.09961 -0.0293,-0.199218 0,-0.08789 0.04687,-0.240235 0.04687,-0.158203 0.117188,-0.351562 0.07617,-0.19336 0.164062,-0.404297 0.08789,-0.210938 0.169922,-0.404297 0.08203,-0.193359 0.140625,-0.357422 0.05859,-0.164062 0.08203,-0.257812 0.02344,-0.105469 0.05859,-0.251954 0.03516,-0.146484 0.07617,-0.316406 0.04687,-0.175781 0.08789,-0.363281 0.04687,-0.193359 0.09375,-0.386719 -0.08203,0.01758 -0.205079,0.03516 -0.117187,0.01172 -0.251953,0.02344 -0.193359,0.01758 -0.380859,0.05273 -0.1875,0.03516 -0.386719,0.08203 -0.193359,0.04102 -0.404297,0.09375 -0.210937,0.04687 -0.451172,0.09961 -0.351562,0.07617 -0.703125,0.169922 -0.351562,0.09375 -0.732421,0.09375 -0.117188,0 -0.216797,-0.05859 -0.09961,-0.06445 -0.222657,-0.09375 -0.117187,0.1875 -0.222656,0.404297 -0.105469,0.210937 -0.193359,0.439453 -0.08789,0.222656 -0.158203,0.445313 -0.07031,0.216796 -0.123047,0.410156 -0.0293,0.105469 -0.05273,0.27539 -0.01758,0.164063 -0.03516,0.339844 -0.01758,0.169922 -0.03516,0.328125 -0.01758,0.158203 -0.03516,0.251953 -0.01758,0.08789 -0.07031,0.175782 -0.05273,0.08203 -0.128906,0.152343 -0.07617,0.07031 -0.169922,0.111328 -0.09375,0.04687 -0.1875,0.04687 -0.164062,0 -0.269531,-0.09375 -0.09961,-0.09961 -0.164063,-0.240234 -0.05859,-0.146484 -0.08203,-0.316406 -0.02344,-0.169922 -0.02344,-0.310547 0,-0.357422 0.08789,-0.738281 0.08789,-0.386719 0.234375,-0.779297 0.152344,-0.398438 0.351563,-0.796875 0.205078,-0.404297 0.439453,-0.802735 0.193359,-0.357421 0.480469,-0.826171 0.287109,-0.46875 0.638671,-0.960938 0.357422,-0.498047 0.767579,-0.972656 0.416015,-0.47461 0.861328,-0.84375 0.445312,-0.375 0.914062,-0.603516 0.46875,-0.228515 0.931641,-0.228515 0.486328,0 0.808594,0.175781 0.328125,0.175781 0.521484,0.474609 0.193359,0.298828 0.269531,0.697266 0.08203,0.398437 0.08203,0.84375 0,0.392578 -0.05273,0.808594 -0.04687,0.416015 -0.123047,0.814453 -0.07031,0.398437 -0.158203,0.767578 -0.08203,0.36914 -0.152344,0.667969 l -0.205078,0.796875 q -0.01172,0.03516 -0.04687,0.140625 -0.0293,0.105468 -0.08203,0.257812 -0.04687,0.146484 -0.111328,0.322266 -0.05859,0.169922 -0.123047,0.339843 -0.05859,0.164063 -0.117188,0.304688 -0.05273,0.140625 -0.09375,0.228516 l 0.0059,-0.0059 q -0.04102,0.152344 -0.08789,0.310547 -0.04687,0.158203 -0.128906,0.287109 -0.08203,0.123047 -0.210938,0.205079 -0.128906,0.07617 -0.333984,0.07617 z m 0.298828,-7.335937 q -0.263672,0 -0.527344,0.111328 -0.257812,0.105469 -0.509765,0.28125 -0.251953,0.175781 -0.492188,0.410156 -0.234375,0.234375 -0.451172,0.480469 -0.210937,0.246094 -0.398437,0.498047 -0.1875,0.246094 -0.339844,0.457031 -0.02344,0.03516 -0.06445,0.09375 -0.03516,0.05273 -0.07617,0.123047 -0.03516,0.06445 -0.07031,0.140625 -0.03516,0.07031 -0.05859,0.128906 h 0.603516 q 0.328125,0 0.75,-0.04687 0.421875,-0.04687 0.832031,-0.111328 0.416015,-0.06445 0.761719,-0.128906 0.345703,-0.07031 0.521484,-0.105469 0.02344,-0.07617 0.04102,-0.205078 0.02344,-0.128906 0.04102,-0.287109 0.01758,-0.158203 0.02344,-0.333985 0.01172,-0.18164 0.01172,-0.36914 0,-0.152344 -0.01172,-0.345703 -0.01172,-0.199219 -0.07031,-0.375 -0.05859,-0.175782 -0.18164,-0.292969 -0.117188,-0.123047 -0.333985,-0.123047 z m 2.970703,4.775391 q 0,-0.339844 0.08203,-0.767579 0.08203,-0.433593 0.287109,-0.83789 0.28125,-0.5625 0.626953,-1.083985 0.345703,-0.527343 0.708984,-0.966796 0.363282,-0.445313 0.726563,-0.785157 0.363281,-0.345703 0.691406,-0.539062 l -0.0059,0.0059 q 0.205078,-0.128906 0.433594,-0.269531 0.228515,-0.140625 0.46875,-0.257813 0.240234,-0.117187 0.486328,-0.193359 0.246093,-0.07617 0.486328,-0.07617 0.246094,0 0.46875,0.09961 0.222656,0.09961 0.386719,0.27539 0.169921,0.169922 0.263671,0.398438 0.09961,0.228515 0.09961,0.486328 0,0.18164 -0.02344,0.287109 -0.01758,0.09961 -0.06445,0.152344 -0.04102,0.05273 -0.111328,0.06445 -0.06445,0.01172 -0.152344,0.01172 -0.128906,0 -0.205078,-0.05273 -0.07031,-0.05859 -0.117187,-0.134765 -0.04102,-0.08203 -0.06445,-0.175781 -0.02344,-0.09961 -0.05859,-0.175782 -0.0293,-0.08203 -0.08203,-0.134765 -0.04687,-0.05859 -0.134766,-0.05859 -0.234375,0 -0.509766,0.105469 -0.269531,0.105468 -0.55664,0.28125 -0.28125,0.175781 -0.56836,0.404297 -0.28125,0.222656 -0.539062,0.457031 -0.257813,0.234375 -0.480469,0.46289 -0.216797,0.228516 -0.375,0.410157 -0.234375,0.298828 -0.427734,0.609375 -0.19336,0.304687 -0.333985,0.626953 -0.140625,0.316406 -0.216797,0.65625 -0.07617,0.333984 -0.07617,0.697265 0,0.28125 0.07617,0.492188 0.08203,0.210937 0.175782,0.363281 0.111328,0.175781 0.27539,0.246094 0.164063,0.06445 0.392578,0.06445 0.498047,0 0.919922,-0.09375 0.421875,-0.09375 0.808594,-0.251953 0.386719,-0.158203 0.755859,-0.375 0.369141,-0.216797 0.761719,-0.462891 h 0.152344 q 0.07617,0 0.152344,0.04102 0.08203,0.04102 0.140625,0.105469 0.06445,0.06445 0.09961,0.146484 0.04102,0.08203 0.04102,0.169922 0,0.193359 -0.152344,0.386719 -0.152344,0.1875 -0.392578,0.363281 -0.234375,0.169922 -0.533203,0.322266 -0.298828,0.152343 -0.591797,0.269531 -0.28711,0.117187 -0.539063,0.199219 -0.251953,0.08203 -0.404297,0.111328 -0.128906,0.0293 -0.251953,0.05859 -0.117187,0.02344 -0.28125,0.05273 -0.164062,0.02344 -0.392578,0.04102 -0.228515,0.01172 -0.574219,0.01172 -0.210937,0 -0.386718,-0.06445 -0.175782,-0.07031 -0.316407,-0.158203 -0.134765,-0.09375 -0.234375,-0.193359 -0.09375,-0.09961 -0.152343,-0.169922 Q 68.603487,73.08457 68.445283,72.691992 68.28708,72.299414 68.28708,71.830664 Z m 9.533203,1.552734 q 0.222657,-0.972656 0.498047,-1.962891 0.28125,-0.990234 0.544922,-1.96289 0.111328,-0.404297 0.19336,-0.732422 0.08789,-0.333985 0.146484,-0.603516 0.05859,-0.269531 0.08789,-0.486328 0.0293,-0.222656 0.0293,-0.410156 0,-0.03516 0,-0.07617 0,-0.04687 -0.0059,-0.111328 -0.05859,0 -0.263672,0.06445 -0.199219,0.06445 -0.474609,0.169922 -0.269531,0.105469 -0.574219,0.240234 -0.298828,0.128906 -0.556641,0.263672 -0.205078,0.105469 -0.345703,0.175781 -0.134765,0.07031 -0.234375,0.111328 -0.09961,0.03516 -0.18164,0.05273 -0.08203,0.01172 -0.169922,0.01172 -0.181641,0 -0.316406,-0.140625 -0.128907,-0.140625 -0.128907,-0.363282 0,-0.128906 0.02344,-0.222656 0.0293,-0.09961 0.08203,-0.175781 0.05859,-0.07617 0.152344,-0.140625 0.09375,-0.07031 0.228515,-0.140625 1.482422,-0.773438 3,-1.13086 1.517579,-0.363281 3.046875,-0.363281 0.123047,0 0.292969,0.0059 0.169922,0.0059 0.345703,0.02344 0.181641,0.01172 0.351563,0.04102 0.169922,0.02344 0.298828,0.05859 0.134766,0.04102 0.234375,0.169922 0.09961,0.128907 0.09961,0.275391 0,0.117187 -0.02344,0.228516 -0.01758,0.111328 -0.07031,0.193359 -0.05273,0.08203 -0.140625,0.134766 -0.08203,0.04687 -0.205078,0.04687 -0.210937,-0.02344 -0.486328,-0.05859 -0.269531,-0.03516 -0.544922,-0.03516 -0.550781,0 -1.101562,0.0293 -0.544922,0.02344 -1.119141,0.152344 -0.0293,0.01172 -0.04102,0.06445 -0.0059,0.04687 -0.01172,0.123047 -0.01758,0.316406 -0.05273,0.556641 -0.03516,0.240234 -0.09961,0.480469 -0.05859,0.240234 -0.146484,0.521484 -0.08789,0.275391 -0.205079,0.667969 -0.117187,0.386718 -0.27539,0.93164 -0.152344,0.539063 -0.339844,1.306641 l -0.28125,1.136719 q -0.09961,0.392578 -0.158203,0.708984 -0.05273,0.310547 -0.09375,0.615234 -0.02344,0.09961 -0.181641,0.1875 -0.152343,0.08789 -0.363281,0.08789 -0.123047,0 -0.222656,-0.06445 -0.09961,-0.07031 -0.164063,-0.175781 -0.06445,-0.105469 -0.08789,-0.228516 -0.02344,-0.128906 0.01172,-0.251953 z m 11.654297,-1.875 q 0.128907,-0.591797 0.275391,-1.054688 0.152344,-0.46875 0.298828,-0.867187 0.146484,-0.404297 0.275391,-0.767578 0.134765,-0.369141 0.234375,-0.761719 l 0.07031,-0.28125 q 0.02344,-0.105469 0.04102,-0.263672 0.01758,-0.158203 0.03516,-0.328125 0.02344,-0.175781 0.05859,-0.345703 0.03516,-0.169922 0.09961,-0.304687 0.07031,-0.134766 0.175781,-0.216797 0.105469,-0.08789 0.269532,-0.08789 0.18164,0 0.304687,0.06445 0.128906,0.06445 0.205078,0.169922 0.07617,0.105469 0.111328,0.246094 0.03516,0.134765 0.03516,0.28125 0,0.123047 -0.01758,0.246094 -0.01172,0.123046 -0.04102,0.228515 -0.06445,0.263672 -0.210938,0.615235 -0.146484,0.351562 -0.322265,0.779296 -0.175781,0.421875 -0.357422,0.919922 -0.181641,0.492188 -0.322266,1.042969 -0.08203,0.310547 -0.146484,0.679688 -0.05859,0.36914 -0.05859,0.667968 0,0.240235 0.04102,0.457032 0.04102,0.210937 0.146484,0.375 0.105469,0.158203 0.28125,0.251953 0.181641,0.09375 0.457031,0.09375 0.210938,0 0.433594,-0.03516 0.228516,-0.03516 0.539063,-0.169921 0.457031,-0.205079 0.861328,-0.527344 0.410156,-0.328125 0.755859,-0.744141 0.351563,-0.416015 0.644531,-0.896484 0.298829,-0.480469 0.539063,-0.996094 0.240234,-0.515625 0.421875,-1.042969 0.1875,-0.527343 0.316406,-1.037109 0.05273,-0.216797 0.08203,-0.404297 0.0293,-0.193359 0.04102,-0.392578 0.01758,-0.199219 0.02344,-0.427734 0.01172,-0.228516 0.03516,-0.521485 0.01758,-0.234375 0.128906,-0.404297 0.117188,-0.175781 0.351563,-0.175781 0.146484,0 0.251953,0.117188 0.111328,0.117187 0.18164,0.292968 0.07031,0.169922 0.105469,0.363282 0.03516,0.193359 0.03516,0.345703 0,0.292968 -0.05859,0.632812 -0.05859,0.339844 -0.140625,0.650391 -0.169922,0.673828 -0.410157,1.353515 -0.234375,0.679688 -0.5625,1.330079 -0.328125,0.65039 -0.767578,1.265625 -0.433594,0.609375 -1.001953,1.142578 -0.28125,0.263672 -0.609375,0.521484 -0.328125,0.251953 -0.685547,0.457031 -0.357422,0.205078 -0.732422,0.328125 -0.375,0.128907 -0.74414,0.128907 -0.533203,0 -0.925782,-0.152344 -0.392578,-0.146485 -0.65625,-0.416016 -0.257812,-0.269531 -0.386718,-0.638672 -0.128907,-0.375 -0.128907,-0.820312 0,-0.210938 0.03516,-0.462891 0.03516,-0.257812 0.08789,-0.503906 z m 7.78711,1.464844 q 0.199218,0.07031 0.404297,0.164062 0.210937,0.09375 0.433593,0.181641 0.222657,0.08203 0.462891,0.140625 0.246094,0.05859 0.521484,0.05859 0.322266,0 0.650391,-0.07617 0.328125,-0.07617 0.638675,-0.222657 0.3164,-0.152343 0.60351,-0.363281 0.28711,-0.216797 0.52735,-0.498047 0.26367,-0.298828 0.43945,-0.539062 0.17578,-0.246094 0.28125,-0.433594 0.11133,-0.193359 0.1582,-0.328125 0.0469,-0.140625 0.0469,-0.240234 0,-0.146485 -0.0996,-0.251953 -0.0996,-0.111329 -0.26953,-0.181641 -0.16407,-0.07031 -0.375,-0.09961 -0.21094,-0.03516 -0.43946,-0.03516 -0.13476,0 -0.3164,0.01172 -0.18164,0.0059 -0.36914,0.01758 -0.1875,0.0059 -0.36328,0.01172 -0.17579,0.0059 -0.304692,0.0059 -0.193359,0 -0.404297,-0.04102 -0.205078,-0.04687 -0.404297,-0.146485 -0.199218,-0.09961 -0.36914,-0.269531 -0.169922,-0.169922 -0.28125,-0.421875 -0.03516,-0.08203 -0.06445,-0.193359 -0.0293,-0.111328 -0.0293,-0.240235 0,-0.140625 0.01758,-0.263672 0.02344,-0.128906 0.05273,-0.246093 0.08203,-0.292969 0.269531,-0.591797 0.19336,-0.304688 0.457032,-0.591797 0.269531,-0.287109 0.580078,-0.556641 0.316405,-0.269531 0.644535,-0.503906 0.33398,-0.240234 0.65039,-0.427734 0.32226,-0.19336 0.59766,-0.328125 0.38671,-0.1875 0.78515,-0.269532 0.4043,-0.08789 0.79688,-0.08789 0.23437,0 0.44531,0.06445 0.21094,0.05859 0.36914,0.175781 0.16406,0.117188 0.25781,0.292969 0.0937,0.169922 0.0937,0.392578 0,0.128906 -0.0293,0.216797 -0.0293,0.08789 -0.0762,0.146484 -0.0469,0.05273 -0.10547,0.07617 -0.0527,0.02344 -0.11132,0.02344 -0.15821,0 -0.29297,-0.03516 -0.12891,-0.03516 -0.25196,-0.07617 -0.12304,-0.04687 -0.24609,-0.08203 -0.12305,-0.04102 -0.26953,-0.04102 -0.43359,0 -0.88477,0.175781 -0.44531,0.169922 -0.87304,0.439453 -0.42188,0.263672 -0.80274,0.591797 -0.375,0.328125 -0.673828,0.638672 -0.158203,0.164062 -0.234375,0.328125 -0.07031,0.164062 -0.07031,0.310547 0,0.216797 0.1875,0.339843 0.1875,0.123047 0.457033,0.123047 0.1582,0 0.35742,-0.0059 0.19922,-0.0059 0.4043,-0.01172 0.21093,-0.01172 0.40429,-0.01758 0.19922,-0.01172 0.35157,-0.01172 0.36328,0 0.69726,0.105469 0.33399,0.09961 0.5918,0.298828 0.25781,0.199219 0.41016,0.498047 0.1582,0.292969 0.1582,0.673828 0,0.234375 -0.0703,0.47461 -0.0703,0.240234 -0.19336,0.486328 -0.12305,0.240234 -0.28125,0.480468 -0.15821,0.234375 -0.33399,0.462891 -0.3164,0.410156 -0.70898,0.773438 -0.38672,0.363281 -0.82617,0.632812 -0.43946,0.269531 -0.93164,0.427734 -0.486333,0.158204 -1.001958,0.158204 -0.222656,0 -0.457031,-0.04102 Q 98.416016,74.56108 98.1875,74.479049 97.958984,74.402877 97.753906,74.28569 97.554687,74.162643 97.402344,74.010299 97.25,73.857955 97.15625,73.676315 q -0.08789,-0.1875 -0.08789,-0.404297 0,-0.105469 0.0293,-0.199219 0.03516,-0.09961 0.164063,-0.09961 z m 2.976561,-7.22461 z"
       id="text1"
       transform="scale(0.26458333)"
       aria-label="CONTACT US" />
  </g>
</svg>
